# xmcd
#
# Track frame offsets: 
#        190
#        14911
#        39076
#        67478
#        83392
#        102898
#        130069
#        142170
#        163938
#        182153
#        201954
#
# Disc length: 3082 seconds
#
# Revision: 0
# Processed by: cddbd v1.5.2PL0 Copyright (c) Steve Scherf et al.
# Submitted via: ExactAudioCopy v1.0b4
#
DISCID=9f0c080b
DTITLE=Dirty Revival - Dirty Revival
DYEAR=2015
DGENRE=Blues
TTITLE0=Dirty Love
TTITLE1=Take It Off
TTITLE2=She Can't Wait
TTITLE3=Make It
TTITLE4=Lay Me Down
TTITLE5=Lately
TTITLE6=Sweet Indulgence
TTITLE7=Breathe
TTITLE8=Lullaby
TTITLE9=Rain Will Come
TTITLE10=Kruse
EXTD=
EXTT0=
EXTT1=
EXTT2=
EXTT3=
EXTT4=
EXTT5=
EXTT6=
EXTT7=
EXTT8=
EXTT9=
EXTT10=
PLAYORDER=
